<?xml version="1.0" encoding="iso-8859-1"?>
<!-- Generator: Adobe Illustrator 19.0.0, SVG Export Plug-In . SVG Version: 6.00 Build 0)  -->
<svg version="1.1" id="Capa_1" xmlns="http://www.w3.org/2000/svg" xmlns:xlink="http://www.w3.org/1999/xlink" x="0px" y="0px"
	 viewBox="0 0 512 512" style="enable-background:new 0 0 512 512;" xml:space="preserve">
<path style="fill:#E1E4FB;" d="M481.871,423.399l-31.201,30H61.27l-30.901-30c2.1-11.1,5.7-21.899,12.9-31.5L146.77,171.7
	c2.701-6,4.2-12.601,4.2-19.2V87.3c-17.401-6.299-30-22.8-30-42.299c0-24.901,20.099-45,45-45h180c24.901,0,45,20.099,45,45
	c0,19.499-12.599,36-30,42.299v65.2c0,6.599,1.5,13.2,4.2,19.2l105,222.599C476.469,402.7,480.069,412.899,481.871,423.399z"/>
<path style="fill:#C5C9F7;" d="M481.871,423.399l-31.201,30h-194.7V0h90c24.901,0,45,20.099,45,45c0,19.499-12.599,36-30,42.299
	v65.2c0,6.599,1.5,13.2,4.2,19.2l105,222.599C476.469,402.7,480.069,412.899,481.871,423.399z"/>
<path style="fill:#66BD21;" d="M270.97,329.799V467c0,8.399-6.599,15-15,15s-15-6.601-15-15V329.799c0-8.399,6.599-15,15-15
	S270.97,321.4,270.97,329.799z"/>
<path style="fill:#5DAD1D;" d="M270.97,329.799V467c0,8.399-6.599,15-15,15V314.799C264.371,314.799,270.97,321.4,270.97,329.799z"
	/>
<path style="fill:#7BCC29;" d="M345.97,241h-30c-24.6,0-46.199,11.999-60,30.599c-13.801-18.6-35.4-30.599-60-30.599h-30
	c-8.401,0-15,6.599-15,15v30c0,41.4,33.6,75,75,75h60c41.4,0,75-33.6,75-75v-30C360.97,247.599,354.371,241,345.97,241z"/>
<path style="fill:#6EB825;" d="M360.97,256v30c0,41.4-33.6,75-75,75h-30v-89.401c13.801-18.6,35.4-30.599,60-30.599h30
	C354.371,241,360.97,247.599,360.97,256z"/>
<path style="fill:#1DE8F1;" d="M480.67,453.399C471.67,490,440.769,512,408.07,512h-304.2c-32.699,0-63.9-22-72.599-58.601
	c-2.401-9.899-2.701-19.799-0.901-30h451.501C483.371,433.299,483.07,443.5,480.67,453.399z"/>
<path style="fill:#1BD9DE;" d="M480.67,453.399C471.67,490,440.769,512,408.07,512h-152.1v-88.601h225.901
	C483.371,433.299,483.07,443.5,480.67,453.399z"/>
<g>
</g>
<g>
</g>
<g>
</g>
<g>
</g>
<g>
</g>
<g>
</g>
<g>
</g>
<g>
</g>
<g>
</g>
<g>
</g>
<g>
</g>
<g>
</g>
<g>
</g>
<g>
</g>
<g>
</g>
</svg>
