<?xml version="1.0" encoding="iso-8859-1"?>
<!-- Generator: Adobe Illustrator 19.0.0, SVG Export Plug-In . SVG Version: 6.00 Build 0)  -->
<svg version="1.1" id="Capa_1" xmlns="http://www.w3.org/2000/svg" xmlns:xlink="http://www.w3.org/1999/xlink" x="0px" y="0px"
	 viewBox="0 0 512.002 512.002" style="enable-background:new 0 0 512.002 512.002;" xml:space="preserve">
<path style="fill:#FFBC97;" d="M436.914,226.335v-13.09c0-13.304-10.785-24.089-24.089-24.089l0,0
	c-13.304,0-24.089,10.785-24.089,24.089v57.711c0,28.243-13.044,54.904-35.342,72.238l-22.433,17.438
	c-21.426,16.655-33.959,42.272-33.959,69.41v71.96h114.157l52.255-67.095c25.005-32.107,38.586-71.655,38.588-112.35V102.918
	c0-16.016-12.982-28.999-28.998-29l0,0c-16.017-0.001-29.002,12.983-29.002,29v123.417L436.914,226.335L436.914,226.335z"/>
<path style="fill:#59AA33;" d="M256,10.001c-0.397,0.337-50.046,25.105-50.046,90.084S256,190.167,256,190.167
	s50.046-25.101,50.046-90.081S256,10.001,256,10.001z"/>
<path style="fill:#A3ED5C;" d="M141.577,125.099c-0.043,0.528-17.93,54.025,28.783,100.739s100.736,28.781,100.736,28.781
	s17.932-54.023-28.781-100.736S141.577,125.099,141.577,125.099z"/>
<path style="fill:#59AA33;" d="M269.685,153.882c-46.713,46.713-28.781,100.736-28.781,100.736s54.023,17.932,100.736-28.781
	s28.826-100.211,28.783-100.739C370.423,125.099,316.398,107.169,269.685,153.882z"/>
<path style="fill:#FFBC97;" d="M75.088,226.335v-13.09c0-13.304,10.785-24.089,24.089-24.089l0,0
	c13.304,0,24.089,10.785,24.089,24.089v57.711c0,28.243,13.044,54.904,35.342,72.238l22.433,17.438
	C202.467,377.287,215,402.904,215,430.042v71.96H100.843l-52.255-67.095C23.583,402.8,10.003,363.252,10,322.556V102.918
	c0-16.016,12.982-28.999,28.998-29l0,0C55.015,73.917,68,86.901,68,102.918v123.417L75.088,226.335L75.088,226.335z"/>
<path d="M205.542,100.484c0.266,0.021,0.529,0.031,0.792,0.031c5.168,0,9.548-3.979,9.959-9.219
	c0.314-4.005,0.848-7.814,1.553-11.448L246,108.002v5.238c0,5.523,4.478,10,10,10s10-4.477,10-10V94.235L291.335,68.9
	c1.992,6.178,3.472,12.994,4.2,20.481c0.535,5.496,5.407,9.518,10.921,8.985c5.497-0.535,9.52-5.424,8.985-10.921
	c-5.943-61.128-52.959-85.381-54.958-86.383c-3.08-1.545-6.695-1.381-9.593,0.342l-0.026,0.015
	c-8.308,4.606-49.979,30.51-54.511,88.313C195.922,95.239,200.036,100.052,205.542,100.484z M282.448,49.502L266,65.95V29.554
	C271.288,34.383,277.241,40.967,282.448,49.502z M246,29.591v50.126l-21.268-21.268C230.744,45.504,238.883,36.059,246,29.591z"/>
<path d="M473.005,63.918h-0.003c-10.416,0-20.211,4.057-27.576,11.422c-7.367,7.366-11.424,17.16-11.424,27.578v46.697
	c0,5.523,4.478,10,10,10s10-4.477,10-10v-46.697c0-5.075,1.977-9.847,5.565-13.436c3.589-3.588,8.359-5.564,13.435-5.564h0.001
	c10.477,0,18.999,8.524,18.999,19v219.638c-0.003,38.288-12.958,76.006-36.479,106.206l-49.251,63.239h-99.271v-61.959
	c0-24.226,10.97-46.647,30.097-61.515l22.433-17.438c24.915-19.368,39.204-48.575,39.204-80.133v-57.711
	c0-7.769,6.32-14.089,14.09-14.089c7.769,0,14.089,6.32,14.089,14.089v13.09c0,5.523,4.478,10,10,10s10-4.477,10-10v-13.09
	c0-18.797-15.292-34.089-34.089-34.089s-34.09,15.292-34.09,34.089v57.711c0,25.339-11.474,48.792-31.479,64.343l-22.433,17.438
	c-24.036,18.685-37.821,46.861-37.821,77.305v71.959c0,5.523,4.478,10,10,10h114.157c3.084,0,5.995-1.423,7.89-3.855l52.254-67.095
	c26.242-33.694,40.696-75.776,40.699-118.495V102.918C512.002,81.415,494.508,63.919,473.005,63.918z"/>
<path d="M436.91,272.331c2.64,0,5.21-1.06,7.069-2.93c1.87-1.86,2.931-4.43,2.931-7.07c0-2.63-1.061-5.21-2.931-7.07
	c-1.859-1.86-4.43-2.93-7.069-2.93c-2.631,0-5.21,1.07-7.07,2.93c-1.86,1.86-2.93,4.44-2.93,7.07s1.069,5.21,2.93,7.07
	C431.7,271.271,434.279,272.331,436.91,272.331z"/>
<path d="M399.901,384.439c-2.714,2.303-4.108,5.986-3.316,9.712c0.999,4.701,5.15,7.922,9.771,7.922
	c0.688,0,1.389-0.072,2.089-0.221l0.581-0.124c2.592-0.551,4.859-2.108,6.304-4.329l14.297-21.982
	c11.31-17.388,17.287-37.542,17.287-58.285v-21.799c0-5.523-4.478-10-10-10s-10,4.477-10,10v21.799
	c0,16.862-4.859,33.246-14.053,47.38L399.901,384.439z"/>
<path d="M380.124,122.667l-0.009-0.032c-0.83-3.267-3.271-5.941-6.543-7.027c-2.443-0.813-60.463-19.292-110.959,31.203
	c-50.496,50.497-32.013,108.512-31.201,110.958c0.995,2.996,3.345,5.346,6.341,6.34c1.051,0.349,12.358,3.96,28.928,3.96
	c21.987,0,53.234-6.365,82.03-35.161C395.325,186.294,383.057,132.898,380.124,122.667z M344.314,207.626
	c-0.642-0.129-1.305-0.198-1.984-0.198h-40.093l61.456-61.456C364.512,161.629,361.72,184.806,344.314,207.626z M349.63,131.75
	l-30.206,30.206v-26.77C330.93,131.887,341.418,131.317,349.63,131.75z M276.756,160.954c7.477-7.477,15.131-13.134,22.668-17.385
	v35.427c0,0.903,0.13,1.773,0.355,2.606l-52.222,52.222C246.616,215.96,250.358,187.352,276.756,160.954z M261.697,247.968
	l20.541-20.54h42.621C301.359,246.012,277.377,248.794,261.697,247.968z"/>
<path d="M224.769,151.697c4.367,3.384,10.647,2.589,14.03-1.776c3.384-4.365,2.588-10.646-1.776-14.03
	c-47.333-36.693-96.524-20.97-98.595-20.282c-3.271,1.085-5.713,3.76-6.543,7.027l-0.009,0.032
	c-2.933,10.231-15.201,63.627,31.413,110.241c11.405,11.406,24.2,20.185,38.028,26.092c1.282,0.547,2.613,0.806,3.924,0.806
	c3.884,0,7.579-2.277,9.201-6.074c2.169-5.079-0.189-10.955-5.268-13.125c-11.471-4.899-22.15-12.248-31.743-21.841
	c-7.259-7.258-12.799-14.688-17.003-22.025H199c0.024,0,0.048-0.003,0.073-0.004l8.264,8.264c1.953,1.953,4.512,2.929,7.071,2.929
	s5.118-0.977,7.071-2.929c3.905-3.905,3.905-10.237,0-14.143l-21.387-21.387v-31.757
	C208.11,140.785,216.462,145.258,224.769,151.697z M151.891,176.741c-3.406-11.624-4.027-22.299-3.584-30.769l30.77,30.769H151.891z
	 M180.093,149.473l-17.714-17.714c5.122-0.266,11.13-0.145,17.714,0.781V149.473z"/>
<path d="M130.104,53.014c1.953,1.953,4.512,2.929,7.071,2.929s5.119-0.977,7.071-2.929c3.905-3.905,3.905-10.237,0-14.142
	l-19.998-19.997c-3.906-3.905-10.238-3.905-14.143,0s-3.905,10.237,0,14.142L130.104,53.014z"/>
<path d="M166,58.863c5.522,0,10-4.477,10-10V20.026c0-5.523-4.478-10-10-10s-10,4.477-10,10v28.837
	C156,54.385,160.478,58.863,166,58.863z"/>
<path d="M113.748,84.064h28.886c5.522,0,10-4.477,10-10s-4.478-10-10-10h-28.886c-5.522,0-10,4.477-10,10
	S108.226,84.064,113.748,84.064z"/>
<path d="M374.824,55.943c2.559,0,5.118-0.977,7.071-2.929l19.998-19.997c3.905-3.905,3.905-10.237,0-14.142
	c-3.904-3.905-10.234-3.905-14.143,0l-19.998,19.997c-3.905,3.905-3.905,10.237,0,14.142
	C369.706,54.967,372.265,55.943,374.824,55.943z"/>
<path d="M346,58.863c5.522,0,10-4.477,10-10V20.026c0-5.523-4.478-10-10-10s-10,4.477-10,10v28.837
	C336,54.385,340.478,58.863,346,58.863z"/>
<path d="M369.366,84.064h28.886c5.522,0,10-4.477,10-10s-4.478-10-10-10h-28.886c-5.522,0-10,4.477-10,10
	S363.844,84.064,369.366,84.064z"/>
<path d="M187.179,352.737l-22.433-17.438c-20.006-15.551-31.479-39.003-31.479-64.343v-57.711c0-18.797-15.293-34.089-34.09-34.089
	s-34.089,15.292-34.089,34.089v13.09c0,5.523,4.478,10,10,10s10-4.477,10-10v-13.09c0-7.769,6.32-14.089,14.09-14.089
	c7.769,0,14.089,6.32,14.089,14.089v57.711c0,31.558,14.289,60.765,39.204,80.133l22.433,17.438
	C194.03,383.395,205,405.816,205,430.042v61.959h-99.271l-49.251-63.239c-23.52-30.2-36.475-67.918-36.478-106.206V102.918
	c0-10.476,8.522-19,18.999-19c5.075,0,9.847,1.976,13.436,5.564C56.023,93.071,58,97.842,58,102.918v46.697c0,5.523,4.478,10,10,10
	s10-4.477,10-10v-46.697C78,92.5,73.943,82.706,66.576,75.34c-7.366-7.366-17.161-11.422-27.579-11.422
	C17.494,63.919,0,81.415,0,102.918v219.639c0.003,42.717,14.457,84.799,40.699,118.494l52.254,67.095
	c1.895,2.433,4.806,3.855,7.89,3.855H215c5.522,0,10-4.477,10-10v-71.959C225,399.597,211.215,371.421,187.179,352.737z"/>
<path d="M75.09,272.331c2.63,0,5.21-1.06,7.07-2.93c1.859-1.86,2.93-4.44,2.93-7.07s-1.07-5.21-2.93-7.07s-4.44-2.93-7.07-2.93
	c-2.64,0-5.21,1.07-7.07,2.93c-1.859,1.86-2.93,4.44-2.93,7.07c0,2.64,1.07,5.21,2.93,7.07
	C69.88,271.271,72.46,272.331,75.09,272.331z"/>
<path d="M65.088,317.134c0,20.743,5.978,40.897,17.287,58.285L96.672,397.4c1.444,2.221,3.712,3.778,6.304,4.329l0.581,0.124
	c0.701,0.149,1.399,0.221,2.089,0.221c4.62,0,8.772-3.222,9.771-7.922c0.792-3.726-0.603-7.409-3.316-9.712l-12.96-19.925
	c-9.193-14.135-14.053-30.519-14.053-47.38v-21.799c0-5.523-4.478-10-10-10s-10,4.477-10,10
	C65.088,295.336,65.088,317.134,65.088,317.134z"/>
<g>
</g>
<g>
</g>
<g>
</g>
<g>
</g>
<g>
</g>
<g>
</g>
<g>
</g>
<g>
</g>
<g>
</g>
<g>
</g>
<g>
</g>
<g>
</g>
<g>
</g>
<g>
</g>
<g>
</g>
</svg>
